<svg width="256" height="256" viewBox="0 0 256 256" fill="none" xmlns="http://www.w3.org/2000/svg">
<circle cx="128" cy="128" r="116" fill="#542B05"/>
<circle cx="128" cy="128" r="112" fill="#934D0D"/>
<circle cx="128" cy="128" r="112" fill="url(#paint0_radial_107_2)" fill-opacity="0.5"/>
<circle cx="89" cy="49" r="14" fill="#421800"/>
<circle cx="96" cy="57" r="2" fill="white" fill-opacity="0.54"/>
<circle cx="84" cy="43" r="4" fill="white" fill-opacity="0.54"/>
<circle cx="213" cy="115" r="14" fill="#421800"/>
<circle cx="220" cy="123" r="2" fill="white" fill-opacity="0.54"/>
<circle cx="208" cy="109" r="4" fill="white" fill-opacity="0.54"/>
<circle cx="174" cy="128" r="7" fill="#421800"/>
<circle cx="177.5" cy="132" r="1" fill="white" fill-opacity="0.54"/>
<circle cx="171.5" cy="125" r="2" fill="white" fill-opacity="0.54"/>
<circle cx="111" cy="96" r="7" fill="#421800"/>
<circle cx="114.5" cy="100" r="1" fill="white" fill-opacity="0.54"/>
<circle cx="108.5" cy="93" r="2" fill="white" fill-opacity="0.54"/>
<circle cx="140" cy="43" r="7" fill="#421800"/>
<circle cx="143.5" cy="47" r="1" fill="white" fill-opacity="0.54"/>
<circle cx="137.5" cy="40" r="2" fill="white" fill-opacity="0.54"/>
<circle cx="87" cy="190" r="7" fill="#421800"/>
<circle cx="90.5" cy="194" r="1" fill="white" fill-opacity="0.54"/>
<circle cx="84.5" cy="187" r="2" fill="white" fill-opacity="0.54"/>
<circle cx="160" cy="76" r="13" fill="#421800"/>
<circle cx="166.5" cy="83.4286" r="1.85714" fill="white" fill-opacity="0.54"/>
<circle cx="155.357" cy="70.4286" r="3.71429" fill="white" fill-opacity="0.54"/>
<circle cx="56" cy="93" r="13" fill="#421800"/>
<circle cx="62.5" cy="100.429" r="1.85714" fill="white" fill-opacity="0.54"/>
<circle cx="51.3571" cy="87.4286" r="3.71429" fill="white" fill-opacity="0.54"/>
<circle cx="56" cy="142" r="11" fill="#421800"/>
<circle cx="61.5" cy="148.286" r="1.57143" fill="white" fill-opacity="0.54"/>
<circle cx="52.0714" cy="137.286" r="3.14286" fill="white" fill-opacity="0.54"/>
<circle cx="202" cy="179" r="11" fill="#421800"/>
<circle cx="207.5" cy="185.286" r="1.57143" fill="white" fill-opacity="0.54"/>
<circle cx="198.071" cy="174.286" r="3.14286" fill="white" fill-opacity="0.54"/>
<circle cx="137" cy="210" r="20" fill="#421800"/>
<circle cx="147" cy="221.429" r="2.85714" fill="white" fill-opacity="0.54"/>
<circle cx="129.857" cy="201.429" r="5.71429" fill="white" fill-opacity="0.54"/>
<circle cx="109" cy="143" r="15" fill="#421800"/>
<circle cx="116.5" cy="151.571" r="2.14286" fill="white" fill-opacity="0.54"/>
<circle cx="103.643" cy="136.571" r="4.28571" fill="white" fill-opacity="0.54"/>
<defs>
<radialGradient id="paint0_radial_107_2" cx="0" cy="0" r="1" gradientUnits="userSpaceOnUse" gradientTransform="translate(128 128) rotate(90) scale(112)">
<stop stop-color="#FFD699"/>
<stop offset="1" stop-color="white" stop-opacity="0"/>
</radialGradient>
</defs>
</svg>
